<mxfile host="Electron" agent="Mozilla/5.0 (Windows NT 10.0; Win64; x64) AppleWebKit/537.36 (KHTML, like Gecko) draw.io/24.7.17 Chrome/128.0.6613.36 Electron/32.0.1 Safari/537.36" version="24.7.17">
  <diagram name="Page-1" id="B_9R-FM2T5acQjPaaHeU">
    <mxGraphModel dx="1098" dy="868" grid="1" gridSize="10" guides="1" tooltips="1" connect="1" arrows="1" fold="1" page="1" pageScale="1" pageWidth="827" pageHeight="1169" math="0" shadow="0">
      <root>
        <mxCell id="0" />
        <mxCell id="1" parent="0" />
        <mxCell id="htgC9Dd3xAD8XzaWFQDN-16" value="Blog" style="swimlane;childLayout=stackLayout;horizontal=1;startSize=50;horizontalStack=0;rounded=1;fontSize=14;fontStyle=0;strokeWidth=2;resizeParent=0;resizeLast=1;shadow=0;dashed=0;align=center;arcSize=4;whiteSpace=wrap;html=1;" parent="1" vertex="1">
          <mxGeometry x="160" y="430" width="90" height="140" as="geometry" />
        </mxCell>
        <mxCell id="htgC9Dd3xAD8XzaWFQDN-17" value="blogId&lt;div&gt;bloggerId&lt;br&gt;&lt;div&gt;title&lt;/div&gt;&lt;div&gt;description&lt;/div&gt;&lt;/div&gt;&lt;div&gt;creationDate&lt;/div&gt;" style="align=left;strokeColor=none;fillColor=none;spacingLeft=4;fontSize=12;verticalAlign=top;resizable=0;rotatable=0;part=1;html=1;" parent="htgC9Dd3xAD8XzaWFQDN-16" vertex="1">
          <mxGeometry y="50" width="90" height="90" as="geometry" />
        </mxCell>
        <mxCell id="htgC9Dd3xAD8XzaWFQDN-18" value="Note" style="swimlane;childLayout=stackLayout;horizontal=1;startSize=50;horizontalStack=0;rounded=1;fontSize=14;fontStyle=0;strokeWidth=2;resizeParent=0;resizeLast=1;shadow=0;dashed=0;align=center;arcSize=4;whiteSpace=wrap;html=1;" parent="1" vertex="1">
          <mxGeometry x="162" y="220" width="86" height="140" as="geometry">
            <mxRectangle x="130" y="220" width="70" height="50" as="alternateBounds" />
          </mxGeometry>
        </mxCell>
        <mxCell id="htgC9Dd3xAD8XzaWFQDN-19" value="&lt;div&gt;noteId&lt;/div&gt;&lt;div&gt;content&lt;/div&gt;&lt;div&gt;likes&lt;/div&gt;&lt;div&gt;postDate&lt;/div&gt;&lt;div&gt;postId&lt;/div&gt;" style="align=left;strokeColor=none;fillColor=none;spacingLeft=4;fontSize=12;verticalAlign=top;resizable=0;rotatable=0;part=1;html=1;" parent="htgC9Dd3xAD8XzaWFQDN-18" vertex="1">
          <mxGeometry y="50" width="86" height="90" as="geometry" />
        </mxCell>
        <mxCell id="htgC9Dd3xAD8XzaWFQDN-21" value="Post" style="swimlane;childLayout=stackLayout;horizontal=1;startSize=50;horizontalStack=0;rounded=1;fontSize=14;fontStyle=0;strokeWidth=2;resizeParent=0;resizeLast=1;shadow=0;dashed=0;align=center;arcSize=4;whiteSpace=wrap;html=1;" parent="1" vertex="1">
          <mxGeometry x="360" y="540" width="86" height="170" as="geometry" />
        </mxCell>
        <mxCell id="htgC9Dd3xAD8XzaWFQDN-22" value="&lt;div&gt;postId&lt;/div&gt;&lt;div&gt;title&lt;/div&gt;&lt;div&gt;content&lt;/div&gt;&lt;div&gt;likes&lt;/div&gt;&lt;div&gt;favorites&lt;/div&gt;&lt;div&gt;postDate&lt;/div&gt;&lt;div&gt;parentId&lt;/div&gt;" style="align=left;strokeColor=none;fillColor=none;spacingLeft=4;fontSize=12;verticalAlign=top;resizable=0;rotatable=0;part=1;html=1;" parent="htgC9Dd3xAD8XzaWFQDN-21" vertex="1">
          <mxGeometry y="50" width="86" height="120" as="geometry" />
        </mxCell>
        <mxCell id="htgC9Dd3xAD8XzaWFQDN-44" value="" style="fontSize=12;html=1;endArrow=ERzeroToMany;startArrow=ERmandOne;rounded=0;exitX=0.25;exitY=1;exitDx=0;exitDy=0;entryX=0.75;entryY=1;entryDx=0;entryDy=0;endFill=0;" parent="htgC9Dd3xAD8XzaWFQDN-21" source="htgC9Dd3xAD8XzaWFQDN-22" target="htgC9Dd3xAD8XzaWFQDN-22" edge="1">
          <mxGeometry width="100" height="100" relative="1" as="geometry">
            <mxPoint x="32" y="200" as="sourcePoint" />
            <mxPoint x="92" y="240" as="targetPoint" />
            <Array as="points">
              <mxPoint x="22" y="200" />
              <mxPoint x="64" y="200" />
            </Array>
          </mxGeometry>
        </mxCell>
        <mxCell id="htgC9Dd3xAD8XzaWFQDN-23" value="Mutuals" style="swimlane;childLayout=stackLayout;horizontal=1;startSize=50;horizontalStack=0;rounded=1;fontSize=14;fontStyle=0;strokeWidth=2;resizeParent=0;resizeLast=1;shadow=0;dashed=0;align=center;arcSize=4;whiteSpace=wrap;html=1;" parent="1" vertex="1">
          <mxGeometry x="502" y="90" width="86" height="120" as="geometry" />
        </mxCell>
        <mxCell id="htgC9Dd3xAD8XzaWFQDN-24" value="firendId&amp;nbsp;&lt;div&gt;(mutualId&amp;nbsp;&lt;/div&gt;&lt;div&gt;l&lt;span style=&quot;background-color: initial;&quot;&gt;ooks bad)&lt;/span&gt;&lt;/div&gt;" style="align=left;strokeColor=none;fillColor=none;spacingLeft=4;fontSize=12;verticalAlign=top;resizable=0;rotatable=0;part=1;html=1;" parent="htgC9Dd3xAD8XzaWFQDN-23" vertex="1">
          <mxGeometry y="50" width="86" height="70" as="geometry" />
        </mxCell>
        <mxCell id="htgC9Dd3xAD8XzaWFQDN-26" value="Message" style="swimlane;childLayout=stackLayout;horizontal=1;startSize=50;horizontalStack=0;rounded=1;fontSize=14;fontStyle=0;strokeWidth=2;resizeParent=0;resizeLast=1;shadow=0;dashed=0;align=center;arcSize=4;whiteSpace=wrap;html=1;" parent="1" vertex="1">
          <mxGeometry x="372" y="60" width="90" height="150" as="geometry" />
        </mxCell>
        <mxCell id="htgC9Dd3xAD8XzaWFQDN-27" value="&lt;div&gt;&lt;span style=&quot;background-color: initial;&quot;&gt;messageId&lt;/span&gt;&lt;/div&gt;&lt;div&gt;&lt;span style=&quot;background-color: initial;&quot;&gt;userId&lt;/span&gt;&lt;/div&gt;&lt;div&gt;&lt;span style=&quot;background-color: initial;&quot;&gt;recepientId&lt;/span&gt;&lt;/div&gt;&lt;div&gt;&lt;span style=&quot;background-color: initial;&quot;&gt;content&lt;/span&gt;&lt;/div&gt;&lt;div&gt;&lt;span style=&quot;background-color: initial;&quot;&gt;postDate&lt;/span&gt;&lt;/div&gt;" style="align=left;strokeColor=none;fillColor=none;spacingLeft=4;fontSize=12;verticalAlign=top;resizable=0;rotatable=0;part=1;html=1;" parent="htgC9Dd3xAD8XzaWFQDN-26" vertex="1">
          <mxGeometry y="50" width="90" height="100" as="geometry" />
        </mxCell>
        <mxCell id="htgC9Dd3xAD8XzaWFQDN-33" value="User" style="swimlane;childLayout=stackLayout;horizontal=1;startSize=50;horizontalStack=0;rounded=1;fontSize=14;fontStyle=0;strokeWidth=2;resizeParent=0;resizeLast=1;shadow=0;dashed=0;align=center;arcSize=4;whiteSpace=wrap;html=1;" parent="1" vertex="1">
          <mxGeometry x="432" y="310" width="90" height="140" as="geometry" />
        </mxCell>
        <mxCell id="htgC9Dd3xAD8XzaWFQDN-34" value="userId&lt;div&gt;username&lt;/div&gt;&lt;div&gt;passwordHash&lt;/div&gt;&lt;div&gt;email&lt;/div&gt;&lt;div&gt;joinDate&lt;/div&gt;" style="align=left;strokeColor=none;fillColor=none;spacingLeft=4;fontSize=12;verticalAlign=top;resizable=0;rotatable=0;part=1;html=1;" parent="htgC9Dd3xAD8XzaWFQDN-33" vertex="1">
          <mxGeometry y="50" width="90" height="90" as="geometry" />
        </mxCell>
        <mxCell id="htgC9Dd3xAD8XzaWFQDN-39" value="" style="fontSize=12;html=1;endArrow=ERzeroToMany;startArrow=ERmandOne;rounded=0;exitX=0.5;exitY=0;exitDx=0;exitDy=0;entryX=0.5;entryY=1;entryDx=0;entryDy=0;edgeStyle=orthogonalEdgeStyle;endFill=0;" parent="1" source="htgC9Dd3xAD8XzaWFQDN-33" target="htgC9Dd3xAD8XzaWFQDN-27" edge="1">
          <mxGeometry width="100" height="100" relative="1" as="geometry">
            <mxPoint x="482" y="290" as="sourcePoint" />
            <mxPoint x="622" y="190" as="targetPoint" />
          </mxGeometry>
        </mxCell>
        <mxCell id="htgC9Dd3xAD8XzaWFQDN-60" value="Creates" style="edgeLabel;html=1;align=center;verticalAlign=middle;resizable=0;points=[];" parent="htgC9Dd3xAD8XzaWFQDN-39" vertex="1" connectable="0">
          <mxGeometry x="0.1144" y="-2" relative="1" as="geometry">
            <mxPoint x="8" y="2" as="offset" />
          </mxGeometry>
        </mxCell>
        <mxCell id="htgC9Dd3xAD8XzaWFQDN-40" value="" style="fontSize=12;html=1;endArrow=ERzeroToMany;startArrow=ERmandOne;rounded=0;exitX=0;exitY=0;exitDx=0;exitDy=0;entryX=1;entryY=0.25;entryDx=0;entryDy=0;edgeStyle=orthogonalEdgeStyle;endFill=0;" parent="1" source="htgC9Dd3xAD8XzaWFQDN-34" target="htgC9Dd3xAD8XzaWFQDN-19" edge="1">
          <mxGeometry width="100" height="100" relative="1" as="geometry">
            <mxPoint x="428" y="410" as="sourcePoint" />
            <mxPoint x="352" y="310" as="targetPoint" />
            <Array as="points">
              <mxPoint x="342" y="360" />
              <mxPoint x="342" y="293" />
            </Array>
          </mxGeometry>
        </mxCell>
        <mxCell id="htgC9Dd3xAD8XzaWFQDN-59" value="Creates" style="edgeLabel;html=1;align=center;verticalAlign=middle;resizable=0;points=[];" parent="htgC9Dd3xAD8XzaWFQDN-40" vertex="1" connectable="0">
          <mxGeometry x="0.0258" y="-1" relative="1" as="geometry">
            <mxPoint x="39" y="39" as="offset" />
          </mxGeometry>
        </mxCell>
        <mxCell id="htgC9Dd3xAD8XzaWFQDN-41" value="" style="fontSize=12;html=1;endArrow=ERzeroToMany;startArrow=ERmandOne;rounded=0;exitX=0.5;exitY=1;exitDx=0;exitDy=0;entryX=0;entryY=0.25;entryDx=0;entryDy=0;edgeStyle=orthogonalEdgeStyle;endFill=0;" parent="1" source="htgC9Dd3xAD8XzaWFQDN-17" target="htgC9Dd3xAD8XzaWFQDN-22" edge="1">
          <mxGeometry width="100" height="100" relative="1" as="geometry">
            <mxPoint x="416" y="497" as="sourcePoint" />
            <mxPoint x="352" y="620" as="targetPoint" />
          </mxGeometry>
        </mxCell>
        <mxCell id="htgC9Dd3xAD8XzaWFQDN-56" value="Contains" style="edgeLabel;html=1;align=center;verticalAlign=middle;resizable=0;points=[];" parent="htgC9Dd3xAD8XzaWFQDN-41" vertex="1" connectable="0">
          <mxGeometry x="-0.0547" y="2" relative="1" as="geometry">
            <mxPoint x="18" y="2" as="offset" />
          </mxGeometry>
        </mxCell>
        <mxCell id="htgC9Dd3xAD8XzaWFQDN-42" value="" style="fontSize=12;html=1;endArrow=ERzeroToMany;endFill=0;startArrow=ERzeroToMany;rounded=0;exitX=0.75;exitY=0;exitDx=0;exitDy=0;entryX=0.5;entryY=1;entryDx=0;entryDy=0;edgeStyle=orthogonalEdgeStyle;startFill=0;" parent="1" source="htgC9Dd3xAD8XzaWFQDN-33" target="htgC9Dd3xAD8XzaWFQDN-24" edge="1">
          <mxGeometry width="100" height="100" relative="1" as="geometry">
            <mxPoint x="572" y="590" as="sourcePoint" />
            <mxPoint x="672" y="490" as="targetPoint" />
            <Array as="points">
              <mxPoint x="500" y="260" />
              <mxPoint x="545" y="260" />
            </Array>
          </mxGeometry>
        </mxCell>
        <mxCell id="htgC9Dd3xAD8XzaWFQDN-61" value="Adds?" style="edgeLabel;html=1;align=center;verticalAlign=middle;resizable=0;points=[];" parent="htgC9Dd3xAD8XzaWFQDN-42" vertex="1" connectable="0">
          <mxGeometry x="-0.1441" relative="1" as="geometry">
            <mxPoint x="10" as="offset" />
          </mxGeometry>
        </mxCell>
        <mxCell id="htgC9Dd3xAD8XzaWFQDN-43" value="" style="fontSize=12;html=1;endArrow=ERzeroToMany;startArrow=ERmandOne;rounded=0;exitX=0;exitY=0;exitDx=0;exitDy=0;entryX=1;entryY=0.75;entryDx=0;entryDy=0;edgeStyle=orthogonalEdgeStyle;endFill=0;" parent="1" source="htgC9Dd3xAD8XzaWFQDN-22" target="htgC9Dd3xAD8XzaWFQDN-19" edge="1">
          <mxGeometry width="100" height="100" relative="1" as="geometry">
            <mxPoint x="172" y="640" as="sourcePoint" />
            <mxPoint x="329" y="710" as="targetPoint" />
            <Array as="points">
              <mxPoint x="292" y="590" />
              <mxPoint x="292" y="338" />
            </Array>
          </mxGeometry>
        </mxCell>
        <mxCell id="htgC9Dd3xAD8XzaWFQDN-58" value="Contains" style="edgeLabel;html=1;align=center;verticalAlign=middle;resizable=0;points=[];" parent="htgC9Dd3xAD8XzaWFQDN-43" vertex="1" connectable="0">
          <mxGeometry x="0.1945" y="-2" relative="1" as="geometry">
            <mxPoint as="offset" />
          </mxGeometry>
        </mxCell>
        <mxCell id="htgC9Dd3xAD8XzaWFQDN-47" value="" style="edgeStyle=orthogonalEdgeStyle;fontSize=12;html=1;endArrow=ERzeroToMany;startArrow=ERmandOne;rounded=0;exitX=0.25;exitY=1;exitDx=0;exitDy=0;entryX=0.25;entryY=0;entryDx=0;entryDy=0;endFill=0;" parent="1" source="htgC9Dd3xAD8XzaWFQDN-34" target="htgC9Dd3xAD8XzaWFQDN-21" edge="1">
          <mxGeometry width="100" height="100" relative="1" as="geometry">
            <mxPoint x="512" y="600" as="sourcePoint" />
            <mxPoint x="612" y="500" as="targetPoint" />
            <Array as="points">
              <mxPoint x="455" y="480" />
              <mxPoint x="382" y="480" />
            </Array>
          </mxGeometry>
        </mxCell>
        <mxCell id="htgC9Dd3xAD8XzaWFQDN-48" value="Creates" style="edgeLabel;html=1;align=center;verticalAlign=middle;resizable=0;points=[];" parent="htgC9Dd3xAD8XzaWFQDN-47" vertex="1" connectable="0">
          <mxGeometry x="-0.089" relative="1" as="geometry">
            <mxPoint x="7" as="offset" />
          </mxGeometry>
        </mxCell>
        <mxCell id="htgC9Dd3xAD8XzaWFQDN-49" value="" style="edgeStyle=orthogonalEdgeStyle;fontSize=12;html=1;endArrow=ERzeroToMany;startArrow=ERzeroToMany;rounded=0;exitX=0.5;exitY=1;exitDx=0;exitDy=0;entryX=0.5;entryY=0;entryDx=0;entryDy=0;startFill=0;endFill=0;" parent="1" source="htgC9Dd3xAD8XzaWFQDN-34" target="htgC9Dd3xAD8XzaWFQDN-21" edge="1">
          <mxGeometry width="100" height="100" relative="1" as="geometry">
            <mxPoint x="555" y="510" as="sourcePoint" />
            <mxPoint x="482" y="620" as="targetPoint" />
            <Array as="points">
              <mxPoint x="477" y="500" />
              <mxPoint x="403" y="500" />
            </Array>
          </mxGeometry>
        </mxCell>
        <mxCell id="htgC9Dd3xAD8XzaWFQDN-51" value="Likes" style="edgeLabel;html=1;align=center;verticalAlign=middle;resizable=0;points=[];" parent="htgC9Dd3xAD8XzaWFQDN-49" vertex="1" connectable="0">
          <mxGeometry x="0.1517" y="-1" relative="1" as="geometry">
            <mxPoint x="1" y="1" as="offset" />
          </mxGeometry>
        </mxCell>
        <mxCell id="htgC9Dd3xAD8XzaWFQDN-52" value="" style="fontSize=12;html=1;endArrow=ERzeroToMany;startArrow=ERzeroToMany;rounded=0;exitX=0.75;exitY=1;exitDx=0;exitDy=0;entryX=0.75;entryY=0;entryDx=0;entryDy=0;edgeStyle=orthogonalEdgeStyle;startFill=0;endFill=0;" parent="1" source="htgC9Dd3xAD8XzaWFQDN-34" target="htgC9Dd3xAD8XzaWFQDN-21" edge="1">
          <mxGeometry width="100" height="100" relative="1" as="geometry">
            <mxPoint x="546" y="435" as="sourcePoint" />
            <mxPoint x="472" y="545" as="targetPoint" />
            <Array as="points">
              <mxPoint x="500" y="520" />
              <mxPoint x="425" y="520" />
            </Array>
          </mxGeometry>
        </mxCell>
        <mxCell id="htgC9Dd3xAD8XzaWFQDN-53" value="Favorites" style="edgeLabel;html=1;align=center;verticalAlign=middle;resizable=0;points=[];" parent="htgC9Dd3xAD8XzaWFQDN-52" vertex="1" connectable="0">
          <mxGeometry x="0.1517" y="-1" relative="1" as="geometry">
            <mxPoint x="-21" as="offset" />
          </mxGeometry>
        </mxCell>
        <mxCell id="htgC9Dd3xAD8XzaWFQDN-54" value="" style="edgeStyle=orthogonalEdgeStyle;fontSize=12;html=1;endArrow=ERmandOne;startArrow=ERmandOne;rounded=0;exitX=1;exitY=0.25;exitDx=0;exitDy=0;entryX=0;entryY=0.25;entryDx=0;entryDy=0;" parent="1" source="htgC9Dd3xAD8XzaWFQDN-17" target="htgC9Dd3xAD8XzaWFQDN-34" edge="1">
          <mxGeometry width="100" height="100" relative="1" as="geometry">
            <mxPoint x="582" y="610" as="sourcePoint" />
            <mxPoint x="682" y="510" as="targetPoint" />
            <Array as="points">
              <mxPoint x="342" y="497" />
              <mxPoint x="342" y="377" />
            </Array>
          </mxGeometry>
        </mxCell>
        <mxCell id="htgC9Dd3xAD8XzaWFQDN-67" value="Creates" style="edgeLabel;html=1;align=center;verticalAlign=middle;resizable=0;points=[];" parent="htgC9Dd3xAD8XzaWFQDN-54" vertex="1" connectable="0">
          <mxGeometry x="0.6103" y="-1" relative="1" as="geometry">
            <mxPoint x="5" y="-1" as="offset" />
          </mxGeometry>
        </mxCell>
        <mxCell id="htgC9Dd3xAD8XzaWFQDN-55" value="" style="fontSize=12;html=1;endArrow=ERzeroToMany;startArrow=ERmandOne;rounded=0;exitX=0.5;exitY=0;exitDx=0;exitDy=0;entryX=0.5;entryY=1;entryDx=0;entryDy=0;endFill=0;" parent="1" source="htgC9Dd3xAD8XzaWFQDN-16" target="htgC9Dd3xAD8XzaWFQDN-19" edge="1">
          <mxGeometry width="100" height="100" relative="1" as="geometry">
            <mxPoint x="362" y="460" as="sourcePoint" />
            <mxPoint x="462" y="360" as="targetPoint" />
          </mxGeometry>
        </mxCell>
        <mxCell id="htgC9Dd3xAD8XzaWFQDN-57" value="Contains" style="edgeLabel;html=1;align=center;verticalAlign=middle;resizable=0;points=[];" parent="htgC9Dd3xAD8XzaWFQDN-55" vertex="1" connectable="0">
          <mxGeometry x="-0.0916" y="-3" relative="1" as="geometry">
            <mxPoint x="-3" as="offset" />
          </mxGeometry>
        </mxCell>
        <mxCell id="htgC9Dd3xAD8XzaWFQDN-62" value="" style="fontSize=12;html=1;endArrow=ERzeroToMany;startArrow=ERzeroToMany;rounded=0;exitX=0;exitY=0.25;exitDx=0;exitDy=0;entryX=1;entryY=0;entryDx=0;entryDy=0;startFill=0;edgeStyle=orthogonalEdgeStyle;endFill=0;" parent="1" source="htgC9Dd3xAD8XzaWFQDN-33" target="htgC9Dd3xAD8XzaWFQDN-19" edge="1">
          <mxGeometry width="100" height="100" relative="1" as="geometry">
            <mxPoint x="286" y="80" as="sourcePoint" />
            <mxPoint x="212" y="190" as="targetPoint" />
            <Array as="points">
              <mxPoint x="362" y="345" />
              <mxPoint x="362" y="270" />
            </Array>
          </mxGeometry>
        </mxCell>
        <mxCell id="htgC9Dd3xAD8XzaWFQDN-63" value="Likes" style="edgeLabel;html=1;align=center;verticalAlign=middle;resizable=0;points=[];" parent="htgC9Dd3xAD8XzaWFQDN-62" vertex="1" connectable="0">
          <mxGeometry x="0.1517" y="-1" relative="1" as="geometry">
            <mxPoint x="24" y="76" as="offset" />
          </mxGeometry>
        </mxCell>
        <mxCell id="htgC9Dd3xAD8XzaWFQDN-65" value="Contains" style="edgeLabel;html=1;align=center;verticalAlign=middle;resizable=0;points=[];" parent="1" vertex="1" connectable="0">
          <mxGeometry x="382.0000000000001" y="730" as="geometry" />
        </mxCell>
        <mxCell id="htgC9Dd3xAD8XzaWFQDN-68" value="" style="edgeStyle=orthogonalEdgeStyle;fontSize=12;html=1;endArrow=ERzeroToMany;startArrow=ERmandOne;rounded=0;exitX=1;exitY=0.75;exitDx=0;exitDy=0;entryX=1;entryY=0.25;entryDx=0;entryDy=0;startFill=0;endFill=0;" parent="1" source="htgC9Dd3xAD8XzaWFQDN-34" target="htgC9Dd3xAD8XzaWFQDN-21" edge="1">
          <mxGeometry width="100" height="100" relative="1" as="geometry">
            <mxPoint x="576" y="500" as="sourcePoint" />
            <mxPoint x="502" y="610" as="targetPoint" />
            <Array as="points">
              <mxPoint x="542" y="428" />
              <mxPoint x="542" y="583" />
            </Array>
          </mxGeometry>
        </mxCell>
        <mxCell id="htgC9Dd3xAD8XzaWFQDN-69" value="Reposts" style="edgeLabel;html=1;align=center;verticalAlign=middle;resizable=0;points=[];" parent="htgC9Dd3xAD8XzaWFQDN-68" vertex="1" connectable="0">
          <mxGeometry x="0.1517" y="-1" relative="1" as="geometry">
            <mxPoint x="-39" y="18" as="offset" />
          </mxGeometry>
        </mxCell>
        <mxCell id="htgC9Dd3xAD8XzaWFQDN-70" value="Tag" style="swimlane;childLayout=stackLayout;horizontal=1;startSize=50;horizontalStack=0;rounded=1;fontSize=14;fontStyle=0;strokeWidth=2;resizeParent=0;resizeLast=1;shadow=0;dashed=0;align=center;arcSize=4;whiteSpace=wrap;html=1;" parent="1" vertex="1">
          <mxGeometry x="588" y="430" width="90" height="90" as="geometry" />
        </mxCell>
        <mxCell id="htgC9Dd3xAD8XzaWFQDN-71" value="tagId&lt;div&gt;content&lt;/div&gt;" style="align=left;strokeColor=none;fillColor=none;spacingLeft=4;fontSize=12;verticalAlign=top;resizable=0;rotatable=0;part=1;html=1;" parent="htgC9Dd3xAD8XzaWFQDN-70" vertex="1">
          <mxGeometry y="50" width="90" height="40" as="geometry" />
        </mxCell>
        <mxCell id="htgC9Dd3xAD8XzaWFQDN-72" value="" style="fontSize=12;html=1;endArrow=ERzeroToMany;startArrow=ERmandOne;rounded=0;entryX=0.5;entryY=0;entryDx=0;entryDy=0;edgeStyle=orthogonalEdgeStyle;exitX=1;exitY=0.25;exitDx=0;exitDy=0;endFill=0;" parent="1" source="htgC9Dd3xAD8XzaWFQDN-33" target="htgC9Dd3xAD8XzaWFQDN-70" edge="1">
          <mxGeometry width="100" height="100" relative="1" as="geometry">
            <mxPoint x="532" y="390" as="sourcePoint" />
            <mxPoint x="612" y="320" as="targetPoint" />
            <Array as="points">
              <mxPoint x="633" y="345" />
            </Array>
          </mxGeometry>
        </mxCell>
        <mxCell id="htgC9Dd3xAD8XzaWFQDN-73" value="Creates" style="edgeLabel;html=1;align=center;verticalAlign=middle;resizable=0;points=[];" parent="htgC9Dd3xAD8XzaWFQDN-72" vertex="1" connectable="0">
          <mxGeometry x="0.0258" y="-1" relative="1" as="geometry">
            <mxPoint x="-43" y="-1" as="offset" />
          </mxGeometry>
        </mxCell>
        <mxCell id="htgC9Dd3xAD8XzaWFQDN-76" value="" style="fontSize=12;html=1;endArrow=ERzeroToMany;startArrow=ERzeroToMany;rounded=0;entryX=0.5;entryY=1;entryDx=0;entryDy=0;edgeStyle=orthogonalEdgeStyle;exitX=1;exitY=0.25;exitDx=0;exitDy=0;startFill=0;endFill=0;" parent="1" source="htgC9Dd3xAD8XzaWFQDN-22" target="htgC9Dd3xAD8XzaWFQDN-71" edge="1">
          <mxGeometry width="100" height="100" relative="1" as="geometry">
            <mxPoint x="462" y="660" as="sourcePoint" />
            <mxPoint x="653" y="770" as="targetPoint" />
            <Array as="points">
              <mxPoint x="633" y="620" />
            </Array>
          </mxGeometry>
        </mxCell>
        <mxCell id="htgC9Dd3xAD8XzaWFQDN-77" value="Contains" style="edgeLabel;html=1;align=center;verticalAlign=middle;resizable=0;points=[];" parent="htgC9Dd3xAD8XzaWFQDN-76" vertex="1" connectable="0">
          <mxGeometry x="0.0258" y="-1" relative="1" as="geometry">
            <mxPoint x="-48" y="-1" as="offset" />
          </mxGeometry>
        </mxCell>
      </root>
    </mxGraphModel>
  </diagram>
</mxfile>
